<svg width="25" height="23" viewBox="0 0 25 23" fill="none" xmlns="http://www.w3.org/2000/svg">
<path d="M13.2688 22.0447L22.9486 12.2735C24.2043 10.9918 24.9054 9.26749 24.9005 7.47314C24.8956 5.6788 24.185 3.95841 22.9222 2.68362C22.3027 2.05172 21.5638 1.54932 20.7484 1.20563C19.933 0.861947 19.0573 0.683842 18.1724 0.681679C17.2876 0.679515 16.4111 0.853336 15.594 1.19303C14.7769 1.53272 14.0355 2.03151 13.413 2.66037L12.4892 3.59502L11.5514 2.64952C10.9328 2.01846 10.1949 1.51669 9.38058 1.17339C8.56628 0.830089 7.69186 0.652111 6.80817 0.649803C5.92447 0.647495 5.04913 0.820905 4.23306 1.15995C3.41698 1.49899 2.67646 1.9969 2.05455 2.62472C-0.56185 5.26747 -0.54945 9.56252 2.07935 12.2177L11.8087 22.0447C12.2117 22.4523 12.8658 22.4523 13.2688 22.0447ZM14.515 3.75002C14.9935 3.267 15.5634 2.88404 16.1913 2.62345C16.8193 2.36286 17.4929 2.22984 18.1728 2.23215C18.8527 2.23445 19.5253 2.37204 20.1515 2.63689C20.7777 2.90175 21.3449 3.28857 21.8202 3.77482C22.7955 4.7596 23.3446 6.08825 23.3493 7.47424C23.3539 8.86023 22.8136 10.1925 21.845 11.1838V11.1869L12.5388 20.5799L3.17985 11.1265C1.1447 9.07117 1.14315 5.74797 3.1566 3.71437C3.63449 3.23225 4.20352 2.85001 4.83056 2.58992C5.4576 2.32982 6.13011 2.19706 6.80894 2.19937C7.48778 2.20168 8.15938 2.33901 8.78463 2.60336C9.40988 2.86771 9.9763 3.25381 10.4509 3.73917L11.9389 5.24267C12.011 5.31554 12.0968 5.37339 12.1914 5.41288C12.286 5.45236 12.3874 5.47269 12.4899 5.47269C12.5924 5.47269 12.6939 5.45236 12.7885 5.41288C12.8831 5.37339 12.9689 5.31554 13.041 5.24267L14.515 3.75002Z" fill="#2D2D2D"/>
</svg>
