<svg width="24" height="24" viewBox="0 0 24 24" fill="none" xmlns="http://www.w3.org/2000/svg">
<path d="M11.7292 14.5834C18.1147 14.5834 23.2917 16.9992 23.2917 19.9792V23.8334H0.166656V19.9792C0.166656 16.9992 5.34357 14.5834 11.7292 14.5834ZM21.75 19.9792C21.75 17.8517 17.2637 16.125 11.7292 16.125C6.19457 16.125 1.70832 17.8517 1.70832 19.9792V22.2917H21.75V19.9792ZM11.7292 0.708374C13.1602 0.708374 14.5327 1.27686 15.5446 2.28878C16.5565 3.30069 17.125 4.67314 17.125 6.10421C17.125 7.53527 16.5565 8.90772 15.5446 9.91964C14.5327 10.9316 13.1602 11.5 11.7292 11.5C10.2981 11.5 8.92564 10.9316 7.91373 9.91964C6.90181 8.90772 6.33332 7.53527 6.33332 6.10421C6.33332 4.67314 6.90181 3.30069 7.91373 2.28878C8.92564 1.27686 10.2981 0.708374 11.7292 0.708374ZM11.7292 2.25004C10.707 2.25004 9.72665 2.6561 9.00385 3.3789C8.28105 4.1017 7.87499 5.08202 7.87499 6.10421C7.87499 7.1264 8.28105 8.10672 9.00385 8.82951C9.72665 9.55231 10.707 9.95837 11.7292 9.95837C12.7513 9.95837 13.7317 9.55231 14.4545 8.82951C15.1773 8.10672 15.5833 7.1264 15.5833 6.10421C15.5833 5.08202 15.1773 4.1017 14.4545 3.3789C13.7317 2.6561 12.7513 2.25004 11.7292 2.25004Z" fill="#2D2D2D"/>
</svg>
